<svg version="1.2" xmlns="http://www.w3.org/2000/svg" viewBox="0 0 1665 768" width="1665" height="768"><style>tspan{white-space:pre}.a{fill:#fff}.b{fill:#ffce32}.c{fill:#23e5db}.d{fill:#3a77ff}.e{fill:#002f34}</style><path class="a" d="m465.4 16.9h718.9c202.7 0 367 164.4 367 367.1 0 202.7-164.3 367.1-367 367.1h-718.9c-202.7 0-367-164.4-367-367.1 0-202.7 164.3-367.1 367-367.1z"/><path class="b" d="m458.2 669.5c-80.9 0-158.5-25.9-218.7-73-69.1-54.1-108.7-131.6-108.7-212.5 0-41.1 9.7-80.7 29-117.8 25.1-48.1 65-89.3 115.4-119l-52.4-67.5c-64.7 38.1-116 90.9-148.2 152.8-24.8 47.7-37.4 98.7-37.4 151.5 0 104 51 203.6 139.8 273.2 77.3 60.5 177.2 93.9 281.2 93.9h299.7l25.2-40.8-25.2-40.8c0 0-299.7 0-299.7 0z"/><path class="c" d="m1349.5 38.6c-45.7-14.4-93.7-21.7-142.7-21.7h-748.6c-84.3 0-165.7 21.7-235.4 62.8l3.1 51.7 49.3 15.8c54.1-31.9 117.4-48.7 183-48.7h748.6c38.1 0 75.5 5.7 111 16.8 44.9 14.1 86.6 37.2 120.5 66.8l66.2-57.7c-43.6-38-97.2-67.7-155-85.8z"/><path class="d" d="m1504.5 124.5l-55.9 9.9-10.3 47.7c61.9 54 95.9 125.6 95.9 201.9q0 9.4-0.7 18.9-0.7 9.4-2.1 18.7-1.4 9.3-3.5 18.5-2.1 9.2-4.9 18.3c-38.3 124.3-168.4 211.1-316.2 211.1h-448.9l25.2 40.8-25.2 40.8h448.9c190.1 0 357.3-111.7 406.6-271.5q3.6-11.6 6.3-23.5 2.7-11.8 4.5-23.8 1.8-12 2.7-24.1 0.9-12.1 0.9-24.2c0-98-43.8-190.2-123.3-259.5z"/><path fill-rule="evenodd" class="e" d="m464.8 274.3v81.9h-98.5l-32.9 27.3 32.9 27.3h98.5v81.9l32.9 27.3 32.9-27.3v-81.9h98.5l32.9-27.3-32.9-27.3h-98.5v-81.9l-32.9-27.3z"/></svg>